<mxfile host="app.diagrams.net" modified="2020-09-25T22:45:00.160Z" agent="5.0 (Windows NT 10.0; Win64; x64) AppleWebKit/537.36 (KHTML, like Gecko) Chrome/85.0.4183.121 Safari/537.36" etag="kgdHd8XfnGEBR_7CdD8c" version="13.7.3" type="github">
  <diagram id="bMAKh1SzgdeprP3av_3o" name="Page-1">
    <mxGraphModel dx="1038" dy="580" grid="0" gridSize="10" guides="1" tooltips="1" connect="1" arrows="1" fold="1" page="1" pageScale="1" pageWidth="827" pageHeight="1169" math="0" shadow="0">
      <root>
        <mxCell id="0" />
        <mxCell id="1" parent="0" />
        <mxCell id="DFqQZsUnRYklmzMeklKA-6" value="" style="edgeStyle=orthogonalEdgeStyle;rounded=0;orthogonalLoop=1;jettySize=auto;html=1;" parent="1" source="DFqQZsUnRYklmzMeklKA-4" target="DFqQZsUnRYklmzMeklKA-5" edge="1">
          <mxGeometry relative="1" as="geometry" />
        </mxCell>
        <mxCell id="DFqQZsUnRYklmzMeklKA-4" value="Начало" style="strokeWidth=1;html=1;shape=mxgraph.flowchart.terminator;whiteSpace=wrap;" parent="1" vertex="1">
          <mxGeometry x="161.75" y="67" width="82" height="44" as="geometry" />
        </mxCell>
        <mxCell id="DFqQZsUnRYklmzMeklKA-11" value="" style="edgeStyle=orthogonalEdgeStyle;rounded=0;orthogonalLoop=1;jettySize=auto;html=1;" parent="1" source="DFqQZsUnRYklmzMeklKA-5" target="DFqQZsUnRYklmzMeklKA-10" edge="1">
          <mxGeometry relative="1" as="geometry" />
        </mxCell>
        <mxCell id="DFqQZsUnRYklmzMeklKA-18" style="edgeStyle=orthogonalEdgeStyle;rounded=0;orthogonalLoop=1;jettySize=auto;html=1;exitX=1;exitY=0.5;exitDx=0;exitDy=0;" parent="1" edge="1">
          <mxGeometry relative="1" as="geometry">
            <mxPoint x="203" y="314" as="targetPoint" />
            <mxPoint x="258.0000000000001" y="174.5" as="sourcePoint" />
            <Array as="points">
              <mxPoint x="292" y="174" />
              <mxPoint x="292" y="314" />
            </Array>
          </mxGeometry>
        </mxCell>
        <mxCell id="DFqQZsUnRYklmzMeklKA-5" value="&lt;font style=&quot;font-size: 10px&quot;&gt;leaf-&amp;gt;right != nullptr&lt;/font&gt;" style="rhombus;whiteSpace=wrap;html=1;strokeWidth=1;" parent="1" vertex="1">
          <mxGeometry x="145.5" y="146" width="114.5" height="57" as="geometry" />
        </mxCell>
        <mxCell id="DFqQZsUnRYklmzMeklKA-9" value="Конец" style="strokeWidth=1;html=1;shape=mxgraph.flowchart.terminator;whiteSpace=wrap;" parent="1" vertex="1">
          <mxGeometry x="161.75" y="580" width="82" height="44" as="geometry" />
        </mxCell>
        <mxCell id="DFqQZsUnRYklmzMeklKA-14" value="" style="edgeStyle=orthogonalEdgeStyle;rounded=0;orthogonalLoop=1;jettySize=auto;html=1;" parent="1" source="DFqQZsUnRYklmzMeklKA-10" target="DFqQZsUnRYklmzMeklKA-13" edge="1">
          <mxGeometry relative="1" as="geometry" />
        </mxCell>
        <mxCell id="DFqQZsUnRYklmzMeklKA-10" value="&lt;font style=&quot;font-size: 11px&quot;&gt;delete_all_iterator&lt;br&gt;(leaf-&amp;gt;right);&lt;/font&gt;" style="shape=process;whiteSpace=wrap;html=1;backgroundOutline=1;strokeWidth=1;" parent="1" vertex="1">
          <mxGeometry x="142.75" y="238" width="120" height="60" as="geometry" />
        </mxCell>
        <mxCell id="DFqQZsUnRYklmzMeklKA-12" value="Да" style="text;html=1;align=center;verticalAlign=middle;resizable=0;points=[];autosize=1;" parent="1" vertex="1">
          <mxGeometry x="209" y="209" width="25" height="18" as="geometry" />
        </mxCell>
        <mxCell id="DFqQZsUnRYklmzMeklKA-16" value="" style="edgeStyle=orthogonalEdgeStyle;rounded=0;orthogonalLoop=1;jettySize=auto;html=1;" parent="1" source="DFqQZsUnRYklmzMeklKA-13" target="DFqQZsUnRYklmzMeklKA-15" edge="1">
          <mxGeometry relative="1" as="geometry" />
        </mxCell>
        <mxCell id="DFqQZsUnRYklmzMeklKA-23" style="edgeStyle=orthogonalEdgeStyle;rounded=0;orthogonalLoop=1;jettySize=auto;html=1;exitX=1;exitY=0.5;exitDx=0;exitDy=0;" parent="1" edge="1">
          <mxGeometry relative="1" as="geometry">
            <mxPoint x="203.27587890625" y="494.7586164803341" as="targetPoint" />
            <mxPoint x="259.0000000000001" y="355.5" as="sourcePoint" />
            <Array as="points">
              <mxPoint x="291" y="356" />
              <mxPoint x="291" y="495" />
            </Array>
          </mxGeometry>
        </mxCell>
        <mxCell id="DFqQZsUnRYklmzMeklKA-13" value="&lt;font style=&quot;font-size: 10px&quot;&gt;leaf-&amp;gt;left != nullptr&lt;/font&gt;" style="rhombus;whiteSpace=wrap;html=1;strokeWidth=1;" parent="1" vertex="1">
          <mxGeometry x="145.5" y="327" width="114.5" height="57" as="geometry" />
        </mxCell>
        <mxCell id="DFqQZsUnRYklmzMeklKA-21" value="" style="edgeStyle=orthogonalEdgeStyle;rounded=0;orthogonalLoop=1;jettySize=auto;html=1;" parent="1" source="DFqQZsUnRYklmzMeklKA-15" target="DFqQZsUnRYklmzMeklKA-20" edge="1">
          <mxGeometry relative="1" as="geometry" />
        </mxCell>
        <mxCell id="DFqQZsUnRYklmzMeklKA-15" value="&lt;font style=&quot;font-size: 11px&quot;&gt;delete_all_iterator&lt;br&gt;(leaf-&amp;gt;left);&lt;/font&gt;" style="shape=process;whiteSpace=wrap;html=1;backgroundOutline=1;strokeWidth=1;" parent="1" vertex="1">
          <mxGeometry x="142.75" y="413" width="120" height="60" as="geometry" />
        </mxCell>
        <mxCell id="DFqQZsUnRYklmzMeklKA-17" value="Да" style="text;html=1;align=center;verticalAlign=middle;resizable=0;points=[];autosize=1;" parent="1" vertex="1">
          <mxGeometry x="209" y="388" width="25" height="18" as="geometry" />
        </mxCell>
        <mxCell id="DFqQZsUnRYklmzMeklKA-19" value="Нет" style="text;html=1;align=center;verticalAlign=middle;resizable=0;points=[];autosize=1;" parent="1" vertex="1">
          <mxGeometry x="260" y="150" width="31" height="18" as="geometry" />
        </mxCell>
        <mxCell id="DFqQZsUnRYklmzMeklKA-25" value="" style="edgeStyle=orthogonalEdgeStyle;rounded=0;orthogonalLoop=1;jettySize=auto;html=1;" parent="1" source="DFqQZsUnRYklmzMeklKA-20" target="DFqQZsUnRYklmzMeklKA-9" edge="1">
          <mxGeometry relative="1" as="geometry" />
        </mxCell>
        <mxCell id="DFqQZsUnRYklmzMeklKA-20" value="&lt;font style=&quot;font-size: 11px&quot;&gt;delete leaf;&lt;/font&gt;" style="shape=process;whiteSpace=wrap;html=1;backgroundOutline=1;strokeWidth=1;" parent="1" vertex="1">
          <mxGeometry x="142.75" y="514" width="120" height="37" as="geometry" />
        </mxCell>
        <mxCell id="DFqQZsUnRYklmzMeklKA-24" value="Нет" style="text;html=1;align=center;verticalAlign=middle;resizable=0;points=[];autosize=1;" parent="1" vertex="1">
          <mxGeometry x="260" y="333" width="31" height="18" as="geometry" />
        </mxCell>
        <mxCell id="DFqQZsUnRYklmzMeklKA-26" value="delete_all_iterator&lt;br&gt;(leaf)" style="strokeWidth=1;html=1;shape=mxgraph.flowchart.annotation_2;align=left;labelPosition=right;pointerEvents=1;" parent="1" vertex="1">
          <mxGeometry x="243.75" y="52" width="41" height="74" as="geometry" />
        </mxCell>
        <mxCell id="2G2Jk9yeAb4WGQCSNfQ2-4" value="" style="edgeStyle=orthogonalEdgeStyle;rounded=0;orthogonalLoop=1;jettySize=auto;html=1;" edge="1" parent="1" source="2G2Jk9yeAb4WGQCSNfQ2-1" target="2G2Jk9yeAb4WGQCSNfQ2-3">
          <mxGeometry relative="1" as="geometry" />
        </mxCell>
        <mxCell id="2G2Jk9yeAb4WGQCSNfQ2-1" value="Начало" style="strokeWidth=1;html=1;shape=mxgraph.flowchart.terminator;whiteSpace=wrap;" vertex="1" parent="1">
          <mxGeometry x="467" y="65" width="82" height="44" as="geometry" />
        </mxCell>
        <mxCell id="2G2Jk9yeAb4WGQCSNfQ2-2" value="add_element_iterator&lt;br&gt;(value, leaf)" style="strokeWidth=1;html=1;shape=mxgraph.flowchart.annotation_2;align=left;labelPosition=right;pointerEvents=1;" vertex="1" parent="1">
          <mxGeometry x="549" y="50" width="41" height="74" as="geometry" />
        </mxCell>
        <mxCell id="2G2Jk9yeAb4WGQCSNfQ2-6" value="" style="edgeStyle=orthogonalEdgeStyle;rounded=0;orthogonalLoop=1;jettySize=auto;html=1;" edge="1" parent="1" source="2G2Jk9yeAb4WGQCSNfQ2-3" target="2G2Jk9yeAb4WGQCSNfQ2-5">
          <mxGeometry relative="1" as="geometry" />
        </mxCell>
        <mxCell id="2G2Jk9yeAb4WGQCSNfQ2-18" style="edgeStyle=orthogonalEdgeStyle;rounded=0;orthogonalLoop=1;jettySize=auto;html=1;exitX=1;exitY=0.5;exitDx=0;exitDy=0;" edge="1" parent="1">
          <mxGeometry relative="1" as="geometry">
            <mxPoint x="663" y="392" as="targetPoint" />
            <mxPoint x="565.25" y="171.5" as="sourcePoint" />
            <Array as="points">
              <mxPoint x="736" y="171" />
              <mxPoint x="736" y="392" />
            </Array>
          </mxGeometry>
        </mxCell>
        <mxCell id="2G2Jk9yeAb4WGQCSNfQ2-3" value="&lt;font style=&quot;font-size: 10px&quot;&gt;value &amp;gt;= leaf-&amp;gt;value&lt;/font&gt;" style="rhombus;whiteSpace=wrap;html=1;strokeWidth=1;" vertex="1" parent="1">
          <mxGeometry x="450.75" y="144" width="114.5" height="57" as="geometry" />
        </mxCell>
        <mxCell id="2G2Jk9yeAb4WGQCSNfQ2-8" value="" style="edgeStyle=orthogonalEdgeStyle;rounded=0;orthogonalLoop=1;jettySize=auto;html=1;" edge="1" parent="1" source="2G2Jk9yeAb4WGQCSNfQ2-5" target="2G2Jk9yeAb4WGQCSNfQ2-7">
          <mxGeometry relative="1" as="geometry" />
        </mxCell>
        <mxCell id="2G2Jk9yeAb4WGQCSNfQ2-10" value="" style="edgeStyle=orthogonalEdgeStyle;rounded=0;orthogonalLoop=1;jettySize=auto;html=1;" edge="1" parent="1" source="2G2Jk9yeAb4WGQCSNfQ2-5" target="2G2Jk9yeAb4WGQCSNfQ2-9">
          <mxGeometry relative="1" as="geometry" />
        </mxCell>
        <mxCell id="2G2Jk9yeAb4WGQCSNfQ2-5" value="&lt;font style=&quot;font-size: 10px&quot;&gt;leaf-&amp;gt;right != nullptr&lt;/font&gt;" style="rhombus;whiteSpace=wrap;html=1;strokeWidth=1;" vertex="1" parent="1">
          <mxGeometry x="450.75" y="236" width="114.5" height="57" as="geometry" />
        </mxCell>
        <mxCell id="2G2Jk9yeAb4WGQCSNfQ2-12" style="edgeStyle=orthogonalEdgeStyle;rounded=0;orthogonalLoop=1;jettySize=auto;html=1;exitX=0.5;exitY=1;exitDx=0;exitDy=0;entryX=0.5;entryY=0;entryDx=0;entryDy=0;" edge="1" parent="1" source="2G2Jk9yeAb4WGQCSNfQ2-7" target="2G2Jk9yeAb4WGQCSNfQ2-11">
          <mxGeometry relative="1" as="geometry" />
        </mxCell>
        <mxCell id="2G2Jk9yeAb4WGQCSNfQ2-7" value="&lt;font style=&quot;font-size: 10px&quot;&gt;add_element_iterator&lt;br&gt;(value, leaf-&amp;gt;right);&lt;/font&gt;" style="shape=process;whiteSpace=wrap;html=1;backgroundOutline=1;strokeWidth=1;" vertex="1" parent="1">
          <mxGeometry x="448" y="322" width="120" height="46" as="geometry" />
        </mxCell>
        <mxCell id="2G2Jk9yeAb4WGQCSNfQ2-24" style="edgeStyle=orthogonalEdgeStyle;rounded=0;orthogonalLoop=1;jettySize=auto;html=1;exitX=0.5;exitY=1;exitDx=0;exitDy=0;" edge="1" parent="1" source="2G2Jk9yeAb4WGQCSNfQ2-9">
          <mxGeometry relative="1" as="geometry">
            <mxPoint x="508" y="392" as="targetPoint" />
            <Array as="points">
              <mxPoint x="663" y="392" />
            </Array>
          </mxGeometry>
        </mxCell>
        <mxCell id="2G2Jk9yeAb4WGQCSNfQ2-9" value="&lt;font style=&quot;font-size: 11px&quot;&gt;leaf-&amp;gt;right = new Leaf(value);&lt;/font&gt;" style="shape=process;whiteSpace=wrap;html=1;backgroundOutline=1;strokeWidth=1;" vertex="1" parent="1">
          <mxGeometry x="603" y="322" width="120" height="46" as="geometry" />
        </mxCell>
        <mxCell id="2G2Jk9yeAb4WGQCSNfQ2-26" value="" style="edgeStyle=orthogonalEdgeStyle;rounded=0;orthogonalLoop=1;jettySize=auto;html=1;" edge="1" parent="1" source="2G2Jk9yeAb4WGQCSNfQ2-11" target="2G2Jk9yeAb4WGQCSNfQ2-25">
          <mxGeometry relative="1" as="geometry" />
        </mxCell>
        <mxCell id="2G2Jk9yeAb4WGQCSNfQ2-28" value="" style="edgeStyle=orthogonalEdgeStyle;rounded=0;orthogonalLoop=1;jettySize=auto;html=1;" edge="1" parent="1" source="2G2Jk9yeAb4WGQCSNfQ2-11" target="2G2Jk9yeAb4WGQCSNfQ2-27">
          <mxGeometry relative="1" as="geometry" />
        </mxCell>
        <mxCell id="2G2Jk9yeAb4WGQCSNfQ2-11" value="&lt;font style=&quot;font-size: 10px&quot;&gt;leaf-&amp;gt;left != nullptr&lt;/font&gt;" style="rhombus;whiteSpace=wrap;html=1;strokeWidth=1;" vertex="1" parent="1">
          <mxGeometry x="450.75" y="411" width="114.5" height="57" as="geometry" />
        </mxCell>
        <mxCell id="2G2Jk9yeAb4WGQCSNfQ2-13" value="Да" style="text;html=1;align=center;verticalAlign=middle;resizable=0;points=[];autosize=1;" vertex="1" parent="1">
          <mxGeometry x="516" y="296" width="25" height="18" as="geometry" />
        </mxCell>
        <mxCell id="2G2Jk9yeAb4WGQCSNfQ2-14" value="Нет" style="text;html=1;align=center;verticalAlign=middle;resizable=0;points=[];autosize=1;" vertex="1" parent="1">
          <mxGeometry x="572" y="245" width="31" height="18" as="geometry" />
        </mxCell>
        <mxCell id="2G2Jk9yeAb4WGQCSNfQ2-15" value="Да" style="text;html=1;align=center;verticalAlign=middle;resizable=0;points=[];autosize=1;" vertex="1" parent="1">
          <mxGeometry x="513" y="210" width="25" height="18" as="geometry" />
        </mxCell>
        <mxCell id="2G2Jk9yeAb4WGQCSNfQ2-20" value="Нет" style="text;html=1;align=center;verticalAlign=middle;resizable=0;points=[];autosize=1;" vertex="1" parent="1">
          <mxGeometry x="572" y="148" width="31" height="18" as="geometry" />
        </mxCell>
        <mxCell id="2G2Jk9yeAb4WGQCSNfQ2-30" value="" style="edgeStyle=orthogonalEdgeStyle;rounded=0;orthogonalLoop=1;jettySize=auto;html=1;" edge="1" parent="1" source="2G2Jk9yeAb4WGQCSNfQ2-25" target="2G2Jk9yeAb4WGQCSNfQ2-29">
          <mxGeometry relative="1" as="geometry" />
        </mxCell>
        <mxCell id="2G2Jk9yeAb4WGQCSNfQ2-25" value="&lt;font style=&quot;font-size: 10px&quot;&gt;add_element_iterator&lt;br&gt;(value, leaf-&amp;gt;left);&lt;/font&gt;" style="shape=process;whiteSpace=wrap;html=1;backgroundOutline=1;strokeWidth=1;" vertex="1" parent="1">
          <mxGeometry x="448" y="509" width="120" height="45" as="geometry" />
        </mxCell>
        <mxCell id="2G2Jk9yeAb4WGQCSNfQ2-31" style="edgeStyle=orthogonalEdgeStyle;rounded=0;orthogonalLoop=1;jettySize=auto;html=1;exitX=0.5;exitY=1;exitDx=0;exitDy=0;entryX=1;entryY=0.5;entryDx=0;entryDy=0;entryPerimeter=0;" edge="1" parent="1" source="2G2Jk9yeAb4WGQCSNfQ2-27" target="2G2Jk9yeAb4WGQCSNfQ2-29">
          <mxGeometry relative="1" as="geometry" />
        </mxCell>
        <mxCell id="2G2Jk9yeAb4WGQCSNfQ2-27" value="leaf-&amp;gt;left = new Leaf(value);" style="shape=process;whiteSpace=wrap;html=1;backgroundOutline=1;strokeWidth=1;" vertex="1" parent="1">
          <mxGeometry x="611" y="509" width="120" height="48" as="geometry" />
        </mxCell>
        <mxCell id="2G2Jk9yeAb4WGQCSNfQ2-29" value="Конец" style="strokeWidth=1;html=1;shape=mxgraph.flowchart.terminator;whiteSpace=wrap;" vertex="1" parent="1">
          <mxGeometry x="467" y="580" width="82" height="44" as="geometry" />
        </mxCell>
        <mxCell id="2G2Jk9yeAb4WGQCSNfQ2-32" value="Да" style="text;html=1;align=center;verticalAlign=middle;resizable=0;points=[];autosize=1;" vertex="1" parent="1">
          <mxGeometry x="513" y="474" width="25" height="18" as="geometry" />
        </mxCell>
        <mxCell id="2G2Jk9yeAb4WGQCSNfQ2-33" value="Нет" style="text;html=1;align=center;verticalAlign=middle;resizable=0;points=[];autosize=1;" vertex="1" parent="1">
          <mxGeometry x="569" y="421" width="31" height="18" as="geometry" />
        </mxCell>
        <mxCell id="2G2Jk9yeAb4WGQCSNfQ2-47" value="" style="edgeStyle=orthogonalEdgeStyle;rounded=0;orthogonalLoop=1;jettySize=auto;html=1;" edge="1" parent="1" source="2G2Jk9yeAb4WGQCSNfQ2-35" target="2G2Jk9yeAb4WGQCSNfQ2-39">
          <mxGeometry relative="1" as="geometry" />
        </mxCell>
        <mxCell id="2G2Jk9yeAb4WGQCSNfQ2-35" value="Начало" style="strokeWidth=1;html=1;shape=mxgraph.flowchart.terminator;whiteSpace=wrap;" vertex="1" parent="1">
          <mxGeometry x="889" y="63" width="82" height="44" as="geometry" />
        </mxCell>
        <mxCell id="2G2Jk9yeAb4WGQCSNfQ2-36" value="getting_height_iterator&lt;br&gt;(leaf, max_height, curren_height)" style="strokeWidth=1;html=1;shape=mxgraph.flowchart.annotation_2;align=left;labelPosition=right;pointerEvents=1;" vertex="1" parent="1">
          <mxGeometry x="971" y="48" width="41" height="74" as="geometry" />
        </mxCell>
        <mxCell id="2G2Jk9yeAb4WGQCSNfQ2-41" value="" style="edgeStyle=orthogonalEdgeStyle;rounded=0;orthogonalLoop=1;jettySize=auto;html=1;" edge="1" parent="1" source="2G2Jk9yeAb4WGQCSNfQ2-39" target="2G2Jk9yeAb4WGQCSNfQ2-40">
          <mxGeometry relative="1" as="geometry" />
        </mxCell>
        <mxCell id="2G2Jk9yeAb4WGQCSNfQ2-48" style="edgeStyle=orthogonalEdgeStyle;rounded=0;orthogonalLoop=1;jettySize=auto;html=1;exitX=1;exitY=0.5;exitDx=0;exitDy=0;" edge="1" parent="1" source="2G2Jk9yeAb4WGQCSNfQ2-39">
          <mxGeometry relative="1" as="geometry">
            <mxPoint x="930" y="317" as="targetPoint" />
            <Array as="points">
              <mxPoint x="1034" y="177" />
              <mxPoint x="1034" y="317" />
            </Array>
          </mxGeometry>
        </mxCell>
        <mxCell id="2G2Jk9yeAb4WGQCSNfQ2-39" value="&lt;font style=&quot;font-size: 10px&quot;&gt;value &amp;gt;= leaf-&amp;gt;value&lt;/font&gt;" style="rhombus;whiteSpace=wrap;html=1;strokeWidth=1;" vertex="1" parent="1">
          <mxGeometry x="872.75" y="148" width="114.5" height="57" as="geometry" />
        </mxCell>
        <mxCell id="2G2Jk9yeAb4WGQCSNfQ2-44" value="" style="edgeStyle=orthogonalEdgeStyle;rounded=0;orthogonalLoop=1;jettySize=auto;html=1;" edge="1" parent="1" source="2G2Jk9yeAb4WGQCSNfQ2-40" target="2G2Jk9yeAb4WGQCSNfQ2-43">
          <mxGeometry relative="1" as="geometry" />
        </mxCell>
        <mxCell id="2G2Jk9yeAb4WGQCSNfQ2-40" value="&lt;font style=&quot;font-size: 10px&quot;&gt;getting_height_iterator&lt;br&gt;(leaf-&amp;gt;left, max_height, curren_height + 1);&lt;/font&gt;" style="shape=process;whiteSpace=wrap;html=1;backgroundOutline=1;strokeWidth=1;" vertex="1" parent="1">
          <mxGeometry x="864" y="242" width="132" height="60" as="geometry" />
        </mxCell>
        <mxCell id="2G2Jk9yeAb4WGQCSNfQ2-46" value="" style="edgeStyle=orthogonalEdgeStyle;rounded=0;orthogonalLoop=1;jettySize=auto;html=1;" edge="1" parent="1" source="2G2Jk9yeAb4WGQCSNfQ2-43" target="2G2Jk9yeAb4WGQCSNfQ2-45">
          <mxGeometry relative="1" as="geometry" />
        </mxCell>
        <mxCell id="2G2Jk9yeAb4WGQCSNfQ2-43" value="&lt;font style=&quot;font-size: 10px&quot;&gt;value &amp;gt;= leaf-&amp;gt;value&lt;/font&gt;" style="rhombus;whiteSpace=wrap;html=1;strokeWidth=1;" vertex="1" parent="1">
          <mxGeometry x="872.75" y="342" width="114.5" height="57" as="geometry" />
        </mxCell>
        <mxCell id="2G2Jk9yeAb4WGQCSNfQ2-45" value="" style="shape=process;whiteSpace=wrap;html=1;backgroundOutline=1;strokeWidth=1;" vertex="1" parent="1">
          <mxGeometry x="870" y="442" width="120" height="60" as="geometry" />
        </mxCell>
        <mxCell id="2G2Jk9yeAb4WGQCSNfQ2-49" value="Да" style="text;html=1;align=center;verticalAlign=middle;resizable=0;points=[];autosize=1;" vertex="1" parent="1">
          <mxGeometry x="930" y="213" width="25" height="18" as="geometry" />
        </mxCell>
        <mxCell id="2G2Jk9yeAb4WGQCSNfQ2-50" value="Нет" style="text;html=1;align=center;verticalAlign=middle;resizable=0;points=[];autosize=1;" vertex="1" parent="1">
          <mxGeometry x="990" y="155" width="31" height="18" as="geometry" />
        </mxCell>
      </root>
    </mxGraphModel>
  </diagram>
</mxfile>
